<?xml version="1.0" encoding="UTF-8"?>
<svg width="48px" height="48px" viewBox="0 0 48 48" version="1.1" xmlns="http://www.w3.org/2000/svg" xmlns:xlink="http://www.w3.org/1999/xlink">
    <title>facebook</title>
    <defs>
        <polygon id="path-1" points="13.818265 6.90909091 25.0437912 6.90909091 25.0437912 31.2609207 13.818265 31.2609207"></polygon>
    </defs>
    <g id="facebook" stroke="none" stroke-width="1" fill="none" fill-rule="evenodd">
        <g>
            <g transform="translate(5.000000, 5.000000)" id="Group-20">
                <rect id="Rectangle" fill="#333333" x="0" y="0" width="38" height="38" rx="7"></rect>
                <mask id="mask-2" fill="white">
                    <use xlink:href="#path-1"></use>
                </mask>
                <g id="Clip-2"></g>
                <path d="M24.5922886,19.062281 L21.2623626,19.062281 L21.2623626,31.2609207 L16.2175747,31.2609207 L16.2175747,19.062281 L13.818265,19.062281 L13.818265,14.7738786 L16.2175747,14.7738786 L16.2175747,11.9999106 C16.2175747,10.0164258 17.1594182,6.90896616 21.3081034,6.90896616 L25.0438744,6.92559916 L25.0438744,11.0867591 L22.332696,11.0867591 C21.8877633,11.0867591 21.2623626,11.3092254 21.2623626,12.2548113 L21.2623626,14.7788685 L25.0338946,14.7788685 L24.5922886,19.062281 Z" id="Fill-1" fill="#FFFFFF" mask="url(#mask-2)"></path>
            </g>
            <rect id="Rectangle" fill-opacity="0" fill="#FFFFFF" fill-rule="nonzero" x="0" y="0" width="48" height="48"></rect>
        </g>
    </g>
</svg>