<?xml version="1.0" encoding="UTF-8"?>
<svg width="48px" height="48px" viewBox="0 0 48 48" version="1.1" xmlns="http://www.w3.org/2000/svg" xmlns:xlink="http://www.w3.org/1999/xlink">
    <title>like</title>
    <g id="like" stroke="none" stroke-width="1" fill="none" fill-rule="evenodd">
        <g id="Group">
            <g id="like" transform="translate(5.000000, 6.500000)" fill="#333333">
                <path d="M11.3544187,3.76040827 C9.35562361,3.76040827 7.46892824,4.57547677 6.04488173,6.05331722 C4.59138529,7.56500134 3.79338725,9.57587967 3.79999601,11.7127317 C3.79999601,13.8514639 4.60278527,15.860462 6.06008169,17.3749664 L18.9943,30.8137255 L31.9503682,17.4012893 C33.4000647,15.8952458 34.2000041,13.8834273 34.2000041,11.7399946 C34.2066127,9.5918614 33.4114646,7.58286328 31.9608182,6.07775987 L31.9598682,6.07775987 C30.5367717,4.59803922 28.6500763,3.78203062 26.6455812,3.78203062 C24.6401361,3.78203062 22.7505908,4.59991942 21.3227443,6.08528069 L19.0104499,8.48630137 L16.6839056,6.06835885 C15.2522592,4.58111738 13.3589138,3.76040827 11.3544187,3.76040827 L11.3544187,3.76040827 Z M19.6735483,31.518802 L19.6763983,31.5225624 C19.6754483,31.5206822 19.6744983,31.5206822 19.6735483,31.518802 L19.6735483,31.518802 Z M18.3036517,31.5282031 C18.3027017,31.5282031 18.3008017,31.5300833 18.2998517,31.5319635 L18.3036517,31.5282031 Z M18.9886,35 C18.2162519,35 17.4629037,34.677545 16.9214051,34.1134837 L3.30793844,19.9677679 C1.17424367,17.7519474 1.0658141e-14,14.8235294 1.0658141e-14,11.7183723 C-0.0085034265,8.61321515 1.16094371,5.67915659 3.29273848,3.46145582 C5.44258321,1.2287134 8.30492619,0 11.3544187,0 C14.2129617,0 16.9100051,1.08111738 19.0123499,3.05533172 C21.1070948,1.09427881 23.7946382,0.0216223476 26.6455812,0.0216223476 C29.7007737,0.0216223476 32.5659667,1.25221595 34.7139114,3.48495837 C36.8409562,5.69607843 38.0085034,8.62825678 38,11.7456352 C38,14.8545528 36.8267062,17.7867311 34.6987115,19.9969111 L21.0510449,34.1266452 C20.5199962,34.6794252 19.7666481,35 18.9886,35 L18.9886,35 Z"></path>
            </g>
            <rect id="Rectangle" fill-opacity="0" fill="#FFFFFF" fill-rule="nonzero" x="0" y="0" width="48" height="48"></rect>
        </g>
    </g>
</svg>