<?xml version="1.0" encoding="UTF-8"?>
<svg width="48px" height="51px" viewBox="0 0 48 51" version="1.1" xmlns="http://www.w3.org/2000/svg" xmlns:xlink="http://www.w3.org/1999/xlink">
    <title>pinterest</title>
    <defs>
        <polygon id="path-1" points="2.03648369e-05 3.85551948e-05 16.7175325 3.85551948e-05 16.7175325 21.4880053 2.03648369e-05 21.4880053"></polygon>
    </defs>
    <g id="pinterest" stroke="none" stroke-width="1" fill="none" fill-rule="evenodd">
        <g id="Group">
            <g id="pinterest" transform="translate(5.000000, 5.000000)">
                <rect id="Rectangle" fill="#333333" x="0" y="0" width="38" height="38" rx="7"></rect>
                <g id="Page-1" transform="translate(10.363636, 8.636364)">
                    <mask id="mask-2" fill="white">
                        <use xlink:href="#path-1"></use>
                    </mask>
                    <g id="Clip-2"></g>
                    <path d="M9.75488839,15.5858604 C8.44748174,15.4833036 7.89807021,14.8363474 6.87211648,14.2121388 C6.30766843,17.1700933 5.61907265,20.0062135 3.57718953,21.4882752 C2.9475832,17.0166437 4.5017431,13.6581006 5.224653,10.0952151 C3.99435674,8.02094562 5.3723194,3.84888799 7.97016843,4.87792614 C11.1660085,6.14137987 5.20190544,12.584724 9.20663352,13.3889854 C13.3860166,14.2287175 15.0924696,6.13675325 12.5004038,3.5045901 C8.75476664,-0.295409903 1.59815138,3.41822646 2.47913758,8.85836445 C2.69311891,10.1881331 4.06799716,10.591806 3.02739245,12.4278044 C0.631187094,11.8965138 -0.0843973214,10.005767 0.00774959416,7.48618506 C0.156572646,3.36116477 3.71406047,0.472609578 7.28350041,0.0720211039 C11.7986993,-0.432666396 16.0351441,1.72989448 16.6196408,5.97559253 C17.277778,10.7680032 14.5819988,15.957918 9.75488839,15.5858604" id="Fill-1" fill="#FFFFFF" mask="url(#mask-2)"></path>
                </g>
            </g>
            <rect id="Rectangle" fill-opacity="0" fill="#FFFFFF" fill-rule="nonzero" x="0" y="0" width="48" height="48"></rect>
        </g>
    </g>
</svg>