<svg width="131" height="24" viewBox="0 0 131 24" fill="none" xmlns="http://www.w3.org/2000/svg">
<rect y="0.0703735" width="23" height="23" rx="4" fill="#00B67A"/>
<path d="M11.5 14.3204L8.26718 16.02L8.88459 12.4202L6.26919 9.87078L9.88359 9.34558L11.5 6.07037L13.1164 9.34558L16.7308 9.87078L14.1154 12.4202L14.7328 16.02L11.5 14.3204Z" fill="white"/>
<rect x="27" y="0.0703735" width="23" height="23" rx="4" fill="#00B67A"/>
<path d="M38.5 14.3204L35.2672 16.02L35.8846 12.4202L33.2692 9.87078L36.8836 9.34558L38.5 6.07037L40.1164 9.34558L43.7308 9.87078L41.1154 12.4202L41.7328 16.02L38.5 14.3204Z" fill="white"/>
<rect x="54" y="0.0703735" width="23" height="23" rx="4" fill="#00B67A"/>
<path d="M65.5 14.3204L62.2672 16.02L62.8846 12.4202L60.2692 9.87078L63.8836 9.34558L65.5 6.07037L67.1164 9.34558L70.7308 9.87078L68.1154 12.4202L68.7328 16.02L65.5 14.3204Z" fill="white"/>
<rect x="81" y="0.0703735" width="23" height="23" rx="4" fill="#00B67A"/>
<path d="M92.5 14.3204L89.2672 16.02L89.8846 12.4202L87.2692 9.87078L90.8836 9.34558L92.5 6.07037L94.1164 9.34558L97.7308 9.87078L95.1154 12.4202L95.7328 16.02L92.5 14.3204Z" fill="white"/>
<rect x="108" y="0.0703735" width="23" height="23" rx="4" fill="#C8C8C8"/>
<path d="M119.5 14.3204L116.267 16.02L116.885 12.4202L114.269 9.87078L117.884 9.34558L119.5 6.07037L121.116 9.34558L124.731 9.87078L122.115 12.4202L122.733 16.02L119.5 14.3204Z" fill="white"/>
</svg>
