<?xml version="1.0" encoding="UTF-8"?>
<svg width="48px" height="48px" viewBox="0 0 48 48" version="1.1" xmlns="http://www.w3.org/2000/svg" xmlns:xlink="http://www.w3.org/1999/xlink">
    <title>Twitter</title>
    <defs>
        <polygon id="path-1" points="8.8372093e-05 -7.10542736e-15 23.1026744 -7.10542736e-15 23.1026744 18.7754907 8.8372093e-05 18.7754907"></polygon>
    </defs>
    <g id="Twitter" stroke="none" stroke-width="1" fill="none" fill-rule="evenodd">
        <g id="Group">
            <rect id="Rectangle" fill-opacity="0" fill="#FFFFFF" fill-rule="nonzero" x="0" y="0" width="48" height="48"></rect>
            <g id="twitter" transform="translate(5.000000, 5.000000)">
                <rect id="Rectangle" fill="#333333" x="0" y="0" width="38" height="38" rx="7"></rect>
                <g id="Page-1" transform="translate(7.772727, 9.500000)">
                    <mask id="mask-2" fill="white">
                        <use xlink:href="#path-1"></use>
                    </mask>
                    <g id="Clip-2"></g>
                    <path d="M23.1027628,2.2495322 C22.253507,2.63049803 21.3388558,2.88894668 20.3809023,3.00430957 C21.3596233,2.41005654 22.1103442,1.47060911 22.4660419,0.350963062 C21.5491814,0.899607513 20.5346698,1.29935335 19.4556465,1.51442913 C18.5909256,0.581688846 17.3585767,-4.41860465e-05 15.9949953,-4.41860465e-05 C13.3765302,-4.41860465e-05 11.2556,2.14847789 11.2556,4.79601154 C11.2556,5.17161166 11.296693,5.53871605 11.3779953,5.8897233 C7.43925116,5.6889561 3.94590233,3.77965552 1.60890233,0.876803221 C1.19973953,1.58597201 0.96687907,2.41005654 0.96687907,3.28869252 C0.96687907,4.95340588 1.80376279,6.4222706 3.07411163,7.28167943 C2.29732093,7.25708657 1.56736744,7.04066936 0.927111628,6.68071925 L0.927111628,6.74197784 C0.927111628,9.06488568 2.56155349,11.0036977 4.72932093,11.4441335 C4.33253023,11.5545779 3.91320465,11.6136007 3.48150698,11.6136007 C3.1761814,11.6136007 2.87925116,11.5836422 2.58894884,11.5277493 C3.19341395,13.4334727 4.94362326,14.8200631 7.01815814,14.8585174 C5.39564651,16.1458421 3.35204186,16.9109038 1.1308093,16.9109038 C0.747274419,16.9109038 0.369483721,16.889888 8.8372093e-05,16.8447266 C2.09715814,18.2058299 4.58792558,18.9999558 7.26471628,18.9999558 C15.9830651,18.9999558 20.7520651,11.6900622 20.7520651,5.35181028 C20.7520651,5.14388879 20.7467628,4.93775587 20.7379256,4.73162295 C21.6649488,4.05554275 22.4678093,3.21044249 23.1027628,2.2495322" id="Fill-1" fill="#FFFFFF" mask="url(#mask-2)"></path>
                </g>
            </g>
        </g>
    </g>
</svg>